<svg width="16" height="19" viewBox="0 0 16 19" fill="none" xmlns="http://www.w3.org/2000/svg">
<path d="M1.78033 8.53033C1.48744 8.82322 1.01256 8.82322 0.71967 8.53033C0.426776 8.23744 0.426776 7.76256 0.71967 7.46967L7.46967 0.71967C7.61612 0.573224 7.80806 0.5 8 0.5C8.10169 0.5 8.19866 0.52024 8.28709 0.556909C8.37354 0.592678 8.45465 0.645307 8.52541 0.714797" fill="black"/>
<path d="M8.5308 0.720143L15.2803 7.46967C15.5732 7.76256 15.5732 8.23744 15.2803 8.53033C14.9874 8.82322 14.5126 8.82322 14.2197 8.53033L8.75 3.06066L8.75 17.75C8.75 18.1642 8.41421 18.5 8 18.5C7.58579 18.5 7.25 18.1642 7.25 17.75L7.25 3.06066L1.78033 8.53033" fill="black"/>
</svg>
