<svg width="24" height="24" viewBox="0 0 24 24" fill="none" xmlns="http://www.w3.org/2000/svg">
<path d="M12.5306 7.71945L20.0306 15.2194C20.1002 15.2891 20.1555 15.3719 20.1932 15.4629C20.2309 15.5539 20.2503 15.6515 20.2503 15.7501C20.2503 15.8486 20.2309 15.9462 20.1932 16.0372C20.1555 16.1283 20.1002 16.211 20.0306 16.2807C19.9609 16.3504 19.8781 16.4057 19.7871 16.4434C19.6961 16.4811 19.5985 16.5005 19.4999 16.5005C19.4014 16.5005 19.3038 16.4811 19.2128 16.4434C19.1217 16.4057 19.039 16.3504 18.9693 16.2807L11.9999 9.31038L5.03055 16.2807C4.88982 16.4214 4.69895 16.5005 4.49993 16.5005C4.30091 16.5005 4.11003 16.4214 3.9693 16.2807C3.82857 16.14 3.74951 15.9491 3.74951 15.7501C3.74951 15.551 3.82857 15.3602 3.9693 15.2194L11.4693 7.71945C11.539 7.64971 11.6217 7.5944 11.7127 7.55665C11.8038 7.51891 11.9014 7.49948 11.9999 7.49948C12.0985 7.49948 12.1961 7.51891 12.2871 7.55665C12.3782 7.5944 12.4609 7.64971 12.5306 7.71945Z" fill="black"/>
</svg>
