<svg width="140" height="140" viewBox="0 0 140 140" fill="none" xmlns="http://www.w3.org/2000/svg">
<g clip-path="url(#clip0_270_6037)">
<circle cx="70" cy="70" r="70" fill="#E5EAF1"/>
<g opacity="0.5" clip-path="url(#clip1_270_6037)">
<path fill-rule="evenodd" clip-rule="evenodd" d="M70 37.5C57.5736 37.5 47.5 47.5736 47.5 60C47.5 68.2132 51.9007 75.3987 58.4728 79.3269C49.6808 82.2135 42.4219 88.3248 37.8366 96.2478C37.1451 97.4428 37.5532 98.9722 38.7482 99.6638C39.9432 100.355 41.4726 99.9473 42.1642 98.7522C47.8023 89.0099 58.0015 82.5 70.0004 82.5C81.9993 82.5 92.1985 89.0099 97.8366 98.7522C98.5282 99.9473 100.058 100.355 101.253 99.6638C102.448 98.9722 102.856 97.4428 102.164 96.2478C97.5788 88.3246 90.3198 82.2133 81.5275 79.3267C88.0994 75.3984 92.5 68.2131 92.5 60C92.5 47.5736 82.4264 37.5 70 37.5ZM52.5 60C52.5 50.335 60.335 42.5 70 42.5C79.665 42.5 87.5 50.335 87.5 60C87.5 69.665 79.665 77.5 70 77.5C60.335 77.5 52.5 69.665 52.5 60Z" fill="#6B7683"/>
</g>
</g>
<defs>
<clipPath id="clip0_270_6037">
<rect width="140" height="140" rx="70" fill="white"/>
</clipPath>
<clipPath id="clip1_270_6037">
<rect width="80" height="80" fill="white" transform="translate(30 30)"/>
</clipPath>
</defs>
</svg>
